<?xml version="1.0" standalone="no"?>
<!DOCTYPE svg PUBLIC "-//W3C//DTD SVG 20010904//EN"
 "http://www.w3.org/TR/2001/REC-SVG-20010904/DTD/svg10.dtd">
<svg version="1.0" xmlns="http://www.w3.org/2000/svg"
 width="1280.000000pt" height="884.000000pt" viewBox="0 0 1280.000000 884.000000"
 preserveAspectRatio="xMidYMid meet">
<metadata>
Created by potrace 1.15, written by Peter Selinger 2001-2017
</metadata>
<g transform="translate(0.000000,884.000000) scale(0.100000,-0.100000)"
fill="#000000" stroke="none">
<path d="M2210 8833 c0 -4 0 -176 0 -382 1 -547 15 -763 76 -1176 116 -789
196 -1090 394 -1480 l96 -191 -98 -144 c-254 -372 -396 -707 -439 -1028 -12
-94 -12 -94 -38 -88 -306 68 -472 84 -698 67 -435 -31 -774 -95 -1021 -191
-105 -41 -107 -42 -92 -71 7 -13 14 -25 15 -26 1 -2 37 12 81 31 210 92 580
163 1014 197 203 15 415 -3 630 -54 l95 -22 7 -45 c7 -37 5 -47 -10 -59 -42
-33 -239 -117 -410 -175 -229 -78 -279 -98 -361 -143 l-63 -35 28 -24 c46 -37
140 -79 264 -119 152 -50 208 -78 216 -111 4 -14 3 -29 -2 -34 -23 -23 -156
-62 -260 -75 -371 -49 -713 -155 -987 -306 -100 -56 -217 -135 -217 -148 0 -4
9 -16 20 -26 18 -17 21 -16 57 12 185 141 520 283 835 354 79 17 91 18 104 5
20 -20 159 -105 336 -205 145 -82 188 -112 188 -132 0 -13 -29 -23 -131 -47
-87 -20 -189 -59 -189 -72 0 -3 57 -57 127 -118 71 -61 143 -126 161 -145 l33
-34 -163 -17 c-365 -38 -512 -67 -753 -149 -367 -125 -727 -302 -968 -474 -76
-55 -77 -57 -60 -77 10 -12 19 -23 20 -25 1 -2 33 19 70 47 275 203 801 443
1188 541 119 31 398 68 703 94 24 2 38 -4 59 -25 l26 -27 -25 -10 c-14 -5 -74
-17 -134 -27 -60 -10 -111 -19 -113 -20 -7 -5 156 -191 247 -282 51 -52 92
-95 90 -97 -2 -2 -73 -36 -157 -74 -318 -146 -502 -257 -640 -387 -69 -65
-161 -181 -161 -204 0 -4 11 -12 25 -18 23 -11 27 -8 59 41 121 182 338 328
800 539 l130 58 105 -102 c58 -57 179 -174 269 -261 89 -86 162 -159 162 -162
0 -3 -35 -23 -79 -44 -238 -120 -392 -223 -528 -354 -91 -88 -444 -477 -467
-515 -7 -12 17 -41 36 -42 3 0 84 89 179 198 339 386 447 474 803 655 l109 55
166 -152 c484 -442 784 -653 1096 -771 133 -50 363 -106 760 -186 381 -77 543
-115 895 -209 302 -80 437 -103 605 -103 197 0 297 23 545 126 123 51 260 91
766 222 893 232 1000 267 1203 402 209 139 421 322 876 757 l145 139 163 -53
c202 -65 248 -84 411 -172 245 -132 376 -231 547 -413 44 -48 343 -387 356
-404 2 -3 13 5 25 17 20 19 20 23 7 39 -277 327 -495 553 -613 638 -191 136
-468 276 -675 341 -80 25 -153 48 -160 50 -10 3 41 61 148 168 l163 164 96
-44 c386 -180 614 -336 717 -493 42 -64 50 -69 80 -48 17 13 16 17 -19 70
-110 166 -325 322 -664 484 l-162 78 167 167 c92 92 165 170 162 172 -3 3 -49
15 -103 26 -104 21 -136 34 -136 53 0 7 28 40 63 74 l62 61 150 -19 c275 -35
369 -57 650 -157 328 -116 679 -294 880 -446 l60 -45 17 22 c10 12 18 24 18
27 0 3 -33 28 -73 56 -270 192 -633 366 -1032 496 -159 51 -277 78 -440 98
-55 7 -114 16 -132 19 l-32 6 102 82 c56 45 119 100 141 122 l38 39 -93 21
c-52 11 -120 25 -151 31 -70 14 -103 37 -94 68 9 27 32 41 271 160 195 98 255
138 240 163 -10 15 -135 73 -195 90 -25 7 -48 15 -53 19 -9 8 207 38 373 52
508 42 1134 -117 1534 -389 43 -30 79 -52 80 -51 1 2 10 13 20 25 l18 22 -98
65 c-431 281 -1052 434 -1580 387 -133 -12 -358 -43 -435 -60 -35 -8 -49 -6
-80 10 -21 10 -41 24 -45 30 -15 24 48 59 179 99 146 46 263 99 297 135 l22
23 -43 32 c-24 18 -64 41 -89 52 -98 43 -342 132 -465 170 -71 22 -152 51
-180 64 -53 26 -91 62 -78 75 13 13 240 66 373 88 182 29 295 34 470 21 441
-33 852 -115 1034 -207 47 -24 50 -24 63 -7 22 31 15 40 -54 71 -257 115 -787
206 -1198 207 -207 0 -326 -15 -562 -73 -152 -38 -153 -38 -157 -17 -3 11 -12
64 -21 116 -60 353 -204 734 -411 1087 l-54 91 36 64 c206 363 313 694 408
1263 69 410 99 645 116 885 10 148 27 1030 19 1030 -14 0 -324 -42 -373 -50
-411 -71 -772 -183 -1175 -364 -412 -184 -732 -463 -1118 -973 -46 -62 -89
-113 -95 -113 -5 0 -47 11 -92 25 -342 104 -663 149 -1061 149 -446 1 -778
-54 -1205 -197 -69 -23 -128 -42 -131 -42 -3 0 -60 72 -126 160 -170 226 -268
341 -418 491 -305 306 -531 443 -1066 645 -299 113 -662 201 -999 243 -69 9
-140 18 -157 21 -18 3 -33 2 -33 -2z"/>
</g>
</svg>
